%TF.GenerationSoftware,KiCad,Pcbnew,(6.0.7)*%
%TF.CreationDate,2022-08-27T20:37:34-04:00*%
%TF.ProjectId,das keyboard,64617320-6b65-4796-926f-6172642e6b69,rev?*%
%TF.SameCoordinates,Original*%
%TF.FileFunction,Copper,L1,Top*%
%TF.FilePolarity,Positive*%
%FSLAX46Y46*%
G04 Gerber Fmt 4.6, Leading zero omitted, Abs format (unit mm)*
G04 Created by KiCad (PCBNEW (6.0.7)) date 2022-08-27 20:37:34*
%MOMM*%
%LPD*%
G01*
G04 APERTURE LIST*
%TA.AperFunction,ComponentPad*%
%ADD10C,2.200000*%
%TD*%
%TA.AperFunction,ComponentPad*%
%ADD11R,1.000000X1.000000*%
%TD*%
%TA.AperFunction,ComponentPad*%
%ADD12O,1.000000X1.000000*%
%TD*%
%TA.AperFunction,ComponentPad*%
%ADD13R,2.200000X2.200000*%
%TD*%
%TA.AperFunction,ComponentPad*%
%ADD14O,2.200000X2.200000*%
%TD*%
G04 APERTURE END LIST*
D10*
%TO.P,Z_1,1,A*%
%TO.N,Net-(Z_1-Pad1)*%
X123450000Y-147260000D03*
%TO.P,Z_1,2,B*%
%TO.N,Tag11*%
X117100000Y-149800000D03*
%TD*%
%TO.P,Zero_1,1,A*%
%TO.N,Tag6*%
X232980000Y-66460000D03*
%TO.P,Zero_1,2,B*%
%TO.N,Net-(Zero_1-Pad2)*%
X226630000Y-69000000D03*
%TD*%
%TO.P,Y_1,1,A*%
%TO.N,Tag25*%
X42650000Y-149180000D03*
%TO.P,Y_1,2,B*%
%TO.N,Net-(Y_1-Pad2)*%
X36300000Y-151720000D03*
%TD*%
%TO.P,X_1,1,A*%
%TO.N,Net-(X_1-Pad1)*%
X43800000Y-229980000D03*
%TO.P,X_1,2,B*%
%TO.N,Tag12*%
X37450000Y-232520000D03*
%TD*%
%TO.P,W_1,1,A*%
%TO.N,Tag12*%
X-12040000Y-190860000D03*
%TO.P,W_1,2,B*%
%TO.N,Net-(W_1-Pad2)*%
X-18390000Y-193400000D03*
%TD*%
%TO.P,V_1,1,A*%
%TO.N,Tag10*%
X124600000Y-208500000D03*
%TO.P,V_1,2,B*%
%TO.N,Net-(V_1-Pad2)*%
X118250000Y-211040000D03*
%TD*%
%TO.P,U_1,1,A*%
%TO.N,Net-(U_1-Pad1)*%
X203260000Y-86660000D03*
%TO.P,U_1,2,B*%
%TO.N,Tag25*%
X196910000Y-89200000D03*
%TD*%
%TO.P,Up_Arrow1,1,A*%
%TO.N,Net-(Up_Arrow1-Pad1)*%
X134120000Y-187660000D03*
%TO.P,Up_Arrow1,2,B*%
%TO.N,Net-(Up_Arrow1-Pad2)*%
X127770000Y-190200000D03*
%TD*%
%TO.P,T_1,1,A*%
%TO.N,Net-(T_1-Pad1)*%
X-37000000Y-211060000D03*
%TO.P,T_1,2,B*%
%TO.N,Tag10*%
X-43350000Y-213600000D03*
%TD*%
%TO.P,TILDE_1,1,A*%
%TO.N,Tag11*%
X62850000Y-148540000D03*
%TO.P,TILDE_1,2,B*%
%TO.N,Net-(TILDE_1-Pad2)*%
X56500000Y-151080000D03*
%TD*%
%TO.P,TAB_1,1,A*%
%TO.N,Tag11*%
X83131250Y-87300000D03*
%TO.P,TAB_1,2,B*%
%TO.N,Net-(TAB_1-Pad2)*%
X76781250Y-89840000D03*
%TD*%
%TO.P,S_1,1,A*%
%TO.N,Tag12*%
X-16800000Y-231260000D03*
%TO.P,S_1,2,B*%
%TO.N,Net-(S_1-Pad2)*%
X-23150000Y-233800000D03*
%TD*%
%TO.P,Space_1,1,A*%
%TO.N,Tag18*%
X13006250Y-66460000D03*
%TO.P,Space_1,2,B*%
%TO.N,Net-(Space_1-Pad2)*%
X6656250Y-69000000D03*
%TD*%
%TO.P,Semicolon_1,1,A*%
%TO.N,Tag6*%
X142660000Y-86660000D03*
%TO.P,Semicolon_1,2,B*%
%TO.N,Net-(Semicolon_1-Pad2)*%
X136310000Y-89200000D03*
%TD*%
%TO.P,Scroll_Lock1,1,A*%
%TO.N,Tag24*%
X181750000Y-127060000D03*
%TO.P,Scroll_Lock1,2,B*%
%TO.N,Net-(Scroll_Lock1-Pad2)*%
X175400000Y-129600000D03*
%TD*%
%TO.P,R_1,1,A*%
%TO.N,Tag10*%
X43800000Y-250180000D03*
%TO.P,R_1,2,B*%
%TO.N,Net-(R_1-Pad2)*%
X37450000Y-252720000D03*
%TD*%
%TO.P,Right_Windows1,1,A*%
%TO.N,Net-(Right_Windows1-Pad1)*%
X80750000Y-107500000D03*
%TO.P,Right_Windows1,2,B*%
%TO.N,Tag3*%
X74400000Y-110040000D03*
%TD*%
%TO.P,Right_Shift1,1,A*%
%TO.N,Tag1*%
X11775000Y-108140000D03*
%TO.P,Right_Shift1,2,B*%
%TO.N,Net-(Right_Shift1-Pad2)*%
X5425000Y-110680000D03*
%TD*%
%TO.P,Right_Control1,1,A*%
%TO.N,Net-(D33-Pad1)*%
X73520000Y-188940000D03*
%TO.P,Right_Control1,2,B*%
%TO.N,Net-(Right_Control1-Pad2)*%
X67170000Y-191480000D03*
%TD*%
%TO.P,Right_Arrow1,1,A*%
%TO.N,Tag16*%
X73520000Y-168740000D03*
%TO.P,Right_Arrow1,2,B*%
%TO.N,Net-(Right_Arrow1-Pad2)*%
X67170000Y-171280000D03*
%TD*%
%TO.P,Right_Alt_1,1,A*%
%TO.N,Net-(Right_Alt_1-Pad1)*%
X-34618750Y-190860000D03*
%TO.P,Right_Alt_1,2,B*%
%TO.N,Tag24*%
X-40968750Y-193400000D03*
%TD*%
%TO.P,Q_1,1,A*%
%TO.N,Net-(Q_1-Pad1)*%
X64000000Y-209780000D03*
%TO.P,Q_1,2,B*%
%TO.N,Tag11*%
X57650000Y-212320000D03*
%TD*%
%TO.P,Question_Mark_1,1,A*%
%TO.N,Net-(Question_Mark_1-Pad1)*%
X3400000Y-251460000D03*
%TO.P,Question_Mark_1,2,B*%
%TO.N,Tag6*%
X-2950000Y-254000000D03*
%TD*%
%TO.P,P_1,1,A*%
%TO.N,Tag6*%
X31970000Y-128980000D03*
%TO.P,P_1,2,B*%
%TO.N,Net-(P_1-Pad2)*%
X25620000Y-131520000D03*
%TD*%
%TO.P,Print_Screen1,1,A*%
%TO.N,Tag24*%
X22450000Y-149180000D03*
%TO.P,Print_Screen1,2,B*%
%TO.N,Net-(Print_Screen1-Pad2)*%
X16100000Y-151720000D03*
%TD*%
%TO.P,Pause1,1,A*%
%TO.N,Tag17*%
X223460000Y-86660000D03*
%TO.P,Pause1,2,B*%
%TO.N,Net-(Pause1-Pad2)*%
X217110000Y-89200000D03*
%TD*%
%TO.P,PAGE_UP1,1,A*%
%TO.N,Net-(PAGE_UP1-Pad1)*%
X181750000Y-106860000D03*
%TO.P,PAGE_UP1,2,B*%
%TO.N,Net-(D18-Pad2)*%
X175400000Y-109400000D03*
%TD*%
%TO.P,PAGE_DOWN1,1,A*%
%TO.N,Net-(PAGE_DOWN1-Pad1)*%
X154320000Y-187660000D03*
%TO.P,PAGE_DOWN1,2,B*%
%TO.N,Net-(D18-Pad2)*%
X147970000Y-190200000D03*
%TD*%
%TO.P,O_1,1,A*%
%TO.N,Net-(O_1-Pad1)*%
X184050000Y-147260000D03*
%TO.P,O_1,2,B*%
%TO.N,Tag22*%
X177700000Y-149800000D03*
%TD*%
%TO.P,Open_Bracket_1,1,A*%
%TO.N,Net-(Open_Bracket_1-Pad1)*%
X121150000Y-127060000D03*
%TO.P,Open_Bracket_1,2,B*%
%TO.N,Tag6*%
X114800000Y-129600000D03*
%TD*%
%TO.P,N_1,1,A*%
%TO.N,Tag25*%
X161550000Y-127060000D03*
%TO.P,N_1,2,B*%
%TO.N,Net-(N_1-Pad2)*%
X155200000Y-129600000D03*
%TD*%
%TO.P,M_1,1,A*%
%TO.N,Net-(M_1-Pad1)*%
X23600000Y-250180000D03*
%TO.P,M_1,2,B*%
%TO.N,Tag25*%
X17250000Y-252720000D03*
%TD*%
%TO.P,Minus1,1,A*%
%TO.N,Net-(Minus1-Pad1)*%
X172380000Y-66460000D03*
%TO.P,Minus1,2,B*%
%TO.N,Tag6*%
X166030000Y-69000000D03*
%TD*%
%TO.P,Less_Than_1,1,A*%
%TO.N,Net-(Less_Than_1-Pad1)*%
X141350000Y-127060000D03*
%TO.P,Less_Than_1,2,B*%
%TO.N,unconnected-(Less_Than_1-Pad2)*%
X135000000Y-129600000D03*
%TD*%
%TO.P,Left_Win_1,1,A*%
%TO.N,Net-(Left_Win_1-Pad1)*%
X-9658750Y-170660000D03*
%TO.P,Left_Win_1,2,B*%
%TO.N,Tag23*%
X-16008750Y-173200000D03*
%TD*%
%TO.P,Left_Shift_2,1,A*%
%TO.N,Net-(Left_Shift_2-Pad1)*%
X-27475000Y-149820000D03*
%TO.P,Left_Shift_2,2,B*%
%TO.N,Tag1*%
X-33825000Y-152360000D03*
%TD*%
%TO.P,Left_Shift_1,1,A*%
%TO.N,Tag1*%
X51025000Y-87300000D03*
%TO.P,Left_Shift_1,2,B*%
%TO.N,Net-(Left_Shift_1-Pad2)*%
X44675000Y-89840000D03*
%TD*%
%TO.P,Left_Control_1,1,A*%
%TO.N,Net-(Left_Control_1-Pad1)*%
X43881250Y-108140000D03*
%TO.P,Left_Control_1,2,B*%
%TO.N,Tag5*%
X37531250Y-110680000D03*
%TD*%
%TO.P,Left_Arrow1,1,A*%
%TO.N,Net-(Up_Arrow1-Pad2)*%
X-16800000Y-251460000D03*
%TO.P,Left_Arrow1,2,B*%
%TO.N,Net-(D31-Pad1)*%
X-23150000Y-254000000D03*
%TD*%
%TO.P,Left_Alt_1,1,A*%
%TO.N,Net-(Left_Alt_1-Pad1)*%
X-34618750Y-170660000D03*
%TO.P,Left_Alt_1,2,B*%
%TO.N,Tag24*%
X-40968750Y-173200000D03*
%TD*%
%TO.P,K_F12_1,1,A*%
%TO.N,Net-(K_F12_1-Pad1)*%
X104400000Y-208500000D03*
%TO.P,K_F12_1,2,B*%
%TO.N,unconnected-(K_F12_1-Pad2)*%
X98050000Y-211040000D03*
%TD*%
%TO.P,K_F11_1,1,A*%
%TO.N,Net-(K_F11_1-Pad1)*%
X33120000Y-169380000D03*
%TO.P,K_F11_1,2,B*%
%TO.N,Tag6*%
X26770000Y-171920000D03*
%TD*%
%TO.P,K_F10_1,1,A*%
%TO.N,Net-(K_F10_1-Pad1)*%
X23600000Y-229980000D03*
%TO.P,K_F10_1,2,B*%
%TO.N,Tag6*%
X17250000Y-232520000D03*
%TD*%
%TO.P,K_1,1,A*%
%TO.N,Tag7*%
X84200000Y-249540000D03*
%TO.P,K_1,2,B*%
%TO.N,Net-(K_1-Pad2)*%
X77850000Y-252080000D03*
%TD*%
%TO.P,KP_STAR1,1,A*%
%TO.N,Net-(KP_STAR1-Pad1)*%
X64000000Y-250180000D03*
%TO.P,KP_STAR1,2,B*%
%TO.N,Tag15*%
X57650000Y-252720000D03*
%TD*%
%TO.P,KP_SLASH1,1,A*%
%TO.N,Net-(D9-Pad1)*%
X100950000Y-107500000D03*
%TO.P,KP_SLASH1,2,B*%
%TO.N,Tag16*%
X94600000Y-110040000D03*
%TD*%
%TO.P,KP_PLUS1,1,A*%
%TO.N,Tag4*%
X382480000Y-53160000D03*
%TO.P,KP_PLUS1,2,B*%
%TO.N,Net-(D2-Pad1)*%
X385020000Y-59510000D03*
%TD*%
%TO.P,KP_NUM1,1,A*%
%TO.N,Net-(D13-Pad1)*%
X84200000Y-209140000D03*
%TO.P,KP_NUM1,2,B*%
%TO.N,Tag18*%
X77850000Y-211680000D03*
%TD*%
%TO.P,KP_MINUS1,1,A*%
%TO.N,Net-(KP_MINUS1-Pad1)*%
X390420000Y-17600000D03*
%TO.P,KP_MINUS1,2,B*%
%TO.N,Tag15*%
X384070000Y-20140000D03*
%TD*%
%TO.P,KP_ENTER1,1,A*%
%TO.N,Tag4*%
X382480000Y-91260000D03*
%TO.P,KP_ENTER1,2,B*%
%TO.N,Net-(KP_ENTER1-Pad2)*%
X385020000Y-97610000D03*
%TD*%
%TO.P,KP_DOT_1,1,A*%
%TO.N,Tag16*%
X370100000Y-114120000D03*
%TO.P,KP_DOT_1,2,B*%
%TO.N,Net-(D17-Pad1)*%
X363750000Y-116660000D03*
%TD*%
%TO.P,KP_9_1,1,A*%
%TO.N,Net-(D5-Pad1)*%
X154320000Y-167460000D03*
%TO.P,KP_9_1,2,B*%
%TO.N,Tag15*%
X147970000Y-170000000D03*
%TD*%
%TO.P,KP_8_1,1,A*%
%TO.N,Net-(KP_8_1-Pad1)*%
X-37000000Y-251460000D03*
%TO.P,KP_8_1,2,B*%
%TO.N,Tag16*%
X-43350000Y-254000000D03*
%TD*%
%TO.P,KP_7_1,1,A*%
%TO.N,Tag6*%
X174520000Y-167460000D03*
%TO.P,KP_7_1,2,B*%
%TO.N,Tag18*%
X168170000Y-170000000D03*
%TD*%
%TO.P,KP_6_1,1,A*%
%TO.N,Net-(D6-Pad1)*%
X242350000Y-106860000D03*
%TO.P,KP_6_1,2,B*%
%TO.N,Tag15*%
X236000000Y-109400000D03*
%TD*%
%TO.P,KP_5_1,1,A*%
%TO.N,Net-(D11-Pad1)*%
X152180000Y-66460000D03*
%TO.P,KP_5_1,2,B*%
%TO.N,Tag16*%
X145830000Y-69000000D03*
%TD*%
%TO.P,KP_4_1,1,A*%
%TO.N,Net-(D15-Pad1)*%
X183060000Y-86660000D03*
%TO.P,KP_4_1,2,B*%
%TO.N,unconnected-(KP_4_1-Pad2)*%
X176710000Y-89200000D03*
%TD*%
%TO.P,KP_3_1,1,A*%
%TO.N,Net-(D7-Pad1)*%
X3400000Y-211060000D03*
%TO.P,KP_3_1,2,B*%
%TO.N,Tag15*%
X-2950000Y-213600000D03*
%TD*%
%TO.P,KP_2_1,1,A*%
%TO.N,Net-(D12-Pad1)*%
X332000000Y-83640000D03*
%TO.P,KP_2_1,2,B*%
%TO.N,Tag16*%
X325650000Y-86180000D03*
%TD*%
%TO.P,KP_1_1,1,A*%
%TO.N,Net-(D16-Pad1)*%
X-37000000Y-231260000D03*
%TO.P,KP_1_1,2,B*%
%TO.N,Tag18*%
X-43350000Y-233800000D03*
%TD*%
%TO.P,KP_0_1,1,A*%
%TO.N,Tag15*%
X316760000Y-113800000D03*
%TO.P,KP_0_1,2,B*%
%TO.N,Net-(D8-Pad1)*%
X310410000Y-116340000D03*
%TD*%
%TO.P,J_1,1,A*%
%TO.N,Net-(J_1-Pad1)*%
X143650000Y-147260000D03*
%TO.P,J_1,2,B*%
%TO.N,Tag25*%
X137300000Y-149800000D03*
%TD*%
%TO.P,INSERT1,1,A*%
%TO.N,Net-(INSERT1-Pad1)*%
X93720000Y-188300000D03*
%TO.P,INSERT1,2,B*%
%TO.N,Tag16*%
X87370000Y-190840000D03*
%TD*%
%TO.P,H_1,1,A*%
%TO.N,Tag25*%
X93720000Y-168100000D03*
%TO.P,H_1,2,B*%
%TO.N,Net-(H_1-Pad2)*%
X87370000Y-170640000D03*
%TD*%
%TO.P,HOME1,1,A*%
%TO.N,Net-(HOME1-Pad1)*%
X3400000Y-231260000D03*
%TO.P,HOME1,2,B*%
%TO.N,Net-(Up_Arrow1-Pad2)*%
X-2950000Y-233800000D03*
%TD*%
D11*
%TO.P,header1,1,Pin_1*%
%TO.N,Tag7*%
X386610000Y19230000D03*
D12*
%TO.P,header1,2,Pin_2*%
%TO.N,Tag24*%
X386610000Y17960000D03*
%TO.P,header1,3,Pin_3*%
%TO.N,Tag22*%
X385340000Y19230000D03*
%TO.P,header1,4,Pin_4*%
%TO.N,Tag25*%
X385340000Y17960000D03*
%TO.P,header1,5,Pin_5*%
%TO.N,Tag10*%
X384070000Y19230000D03*
%TO.P,header1,6,Pin_6*%
%TO.N,Tag26*%
X384070000Y17960000D03*
%TO.P,header1,7,Pin_7*%
%TO.N,Tag12*%
X382800000Y19230000D03*
%TO.P,header1,8,Pin_8*%
%TO.N,Tag11*%
X382800000Y17960000D03*
%TO.P,header1,9,Pin_9*%
%TO.N,Tag17*%
X381530000Y19230000D03*
%TO.P,header1,10,Pin_10*%
%TO.N,Tag6*%
X381530000Y17960000D03*
%TO.P,header1,11,Pin_11*%
%TO.N,Tag7*%
X380260000Y19230000D03*
%TO.P,header1,12,Pin_12*%
%TO.N,Tag5*%
X380260000Y17960000D03*
%TO.P,header1,13,Pin_13*%
%TO.N,Tag16*%
X378990000Y19230000D03*
%TO.P,header1,14,Pin_14*%
%TO.N,Tag6*%
X378990000Y17960000D03*
%TO.P,header1,15,Pin_15*%
%TO.N,Tag18*%
X377720000Y19230000D03*
%TO.P,header1,16,Pin_16*%
%TO.N,Tag20*%
X377720000Y17960000D03*
%TO.P,header1,17,Pin_17*%
%TO.N,Tag21*%
X376450000Y19230000D03*
%TO.P,header1,18,Pin_18*%
%TO.N,Tag13*%
X376450000Y17960000D03*
%TO.P,header1,19,Pin_19*%
%TO.N,Tag14*%
X375180000Y19230000D03*
%TO.P,header1,20,Pin_20*%
%TO.N,Tag15*%
X375180000Y17960000D03*
%TO.P,header1,21,Pin_21*%
%TO.N,Tag19*%
X373910000Y19230000D03*
%TO.P,header1,22,Pin_22*%
%TO.N,Tag2*%
X373910000Y17960000D03*
%TO.P,header1,23,Pin_23*%
%TO.N,Tag3*%
X372640000Y19230000D03*
%TO.P,header1,24,Pin_24*%
%TO.N,Tag23*%
X372640000Y17960000D03*
%TO.P,header1,25,Pin_25*%
%TO.N,Tag1*%
X371370000Y19230000D03*
%TO.P,header1,26,Pin_26*%
%TO.N,Tag4*%
X371370000Y17960000D03*
%TD*%
D10*
%TO.P,G_1,1,A*%
%TO.N,Net-(G_1-Pad1)*%
X113920000Y-168100000D03*
%TO.P,G_1,2,B*%
%TO.N,Tag10*%
X107570000Y-170640000D03*
%TD*%
%TO.P,Greater_Than_1,1,A*%
%TO.N,Net-(Greater_Than_1-Pad1)*%
X92570000Y-127700000D03*
%TO.P,Greater_Than_1,2,B*%
%TO.N,Net-(Greater_Than_1-Pad2)*%
X86220000Y-130240000D03*
%TD*%
%TO.P,F_1,1,A*%
%TO.N,Tag10*%
X192580000Y-66460000D03*
%TO.P,F_1,2,B*%
%TO.N,Net-(F_1-Pad2)*%
X186230000Y-69000000D03*
%TD*%
%TO.P,F9_1,1,A*%
%TO.N,Tag6*%
X212780000Y-66460000D03*
%TO.P,F9_1,2,B*%
%TO.N,Net-(F9_1-Pad2)*%
X206430000Y-69000000D03*
%TD*%
%TO.P,F8_1,1,A*%
%TO.N,Net-(F8_1-Pad1)*%
X43800000Y-209780000D03*
%TO.P,F8_1,2,B*%
%TO.N,Tag22*%
X37450000Y-212320000D03*
%TD*%
%TO.P,F7_1,1,A*%
%TO.N,Tag22*%
X121150000Y-106860000D03*
%TO.P,F7_1,2,B*%
%TO.N,Net-(F7_1-Pad2)*%
X114800000Y-109400000D03*
%TD*%
%TO.P,F6_1,1,A*%
%TO.N,Net-(F6_1-Pad1)*%
X124600000Y-228700000D03*
%TO.P,F6_1,2,B*%
%TO.N,Tag7*%
X118250000Y-231240000D03*
%TD*%
%TO.P,F5_1,1,A*%
%TO.N,Tag6*%
X103250000Y-147900000D03*
%TO.P,F5_1,2,B*%
%TO.N,Net-(F5_1-Pad2)*%
X96900000Y-150440000D03*
%TD*%
%TO.P,F4_1,1,A*%
%TO.N,Net-(F4_1-Pad1)*%
X53320000Y-189580000D03*
%TO.P,F4_1,2,B*%
%TO.N,Tag26*%
X46970000Y-192120000D03*
%TD*%
%TO.P,F3_1,1,A*%
%TO.N,Net-(F3_1-Pad1)*%
X23600000Y-209780000D03*
%TO.P,F3_1,2,B*%
%TO.N,Tag26*%
X17250000Y-212320000D03*
%TD*%
%TO.P,F2_1,1,A*%
%TO.N,Net-(F2_1-Pad1)*%
X104400000Y-248900000D03*
%TO.P,F2_1,2,B*%
%TO.N,Tag26*%
X98050000Y-251440000D03*
%TD*%
%TO.P,F1_1,1,A*%
%TO.N,Net-(F1_1-Pad1)*%
X204250000Y-147260000D03*
%TO.P,F1_1,2,B*%
%TO.N,Tag12*%
X197900000Y-149800000D03*
%TD*%
%TO.P,E_1,1,A*%
%TO.N,Net-(E_1-Pad1)*%
X273380000Y-66460000D03*
%TO.P,E_1,2,B*%
%TO.N,Tag26*%
X267030000Y-69000000D03*
%TD*%
%TO.P,EYE_1,1,A*%
%TO.N,unconnected-(EYE_1-Pad1)*%
X253180000Y-66460000D03*
%TO.P,EYE_1,2,B*%
%TO.N,Net-(EYE_1-Pad2)*%
X246830000Y-69000000D03*
%TD*%
%TO.P,ESC_1,1,A*%
%TO.N,Tag11*%
X201950000Y-106860000D03*
%TO.P,ESC_1,2,B*%
%TO.N,Net-(ESC_1-Pad2)*%
X195600000Y-109400000D03*
%TD*%
%TO.P,Enter1,1,A*%
%TO.N,Tag6*%
X-27475000Y-87300000D03*
%TO.P,Enter1,2,B*%
%TO.N,Net-(Enter1-Pad2)*%
X-33825000Y-89840000D03*
%TD*%
%TO.P,END1,1,A*%
%TO.N,Net-(END1-Pad1)*%
X12920000Y-169380000D03*
%TO.P,END1,2,B*%
%TO.N,Net-(Up_Arrow1-Pad2)*%
X6570000Y-171920000D03*
%TD*%
%TO.P,ELL_1,1,A*%
%TO.N,Net-(Semicolon_1-Pad2)*%
X163850000Y-147260000D03*
%TO.P,ELL_1,2,B*%
%TO.N,Tag22*%
X157500000Y-149800000D03*
%TD*%
%TO.P,D_1,1,A*%
%TO.N,Net-(D_1-Pad1)*%
X104400000Y-228700000D03*
%TO.P,D_1,2,B*%
%TO.N,Tag26*%
X98050000Y-231240000D03*
%TD*%
%TO.P,Down_Arrow1,1,A*%
%TO.N,Tag18*%
X243660000Y-86660000D03*
%TO.P,Down_Arrow1,2,B*%
%TO.N,Net-(D27-Pad1)*%
X237310000Y-89200000D03*
%TD*%
%TO.P,DELETE1,1,A*%
%TO.N,Net-(DELETE1-Pad1)*%
X72370000Y-127700000D03*
%TO.P,DELETE1,2,B*%
%TO.N,Tag18*%
X66020000Y-130240000D03*
%TD*%
D13*
%TO.P,D108,1,K*%
%TO.N,Net-(Left_Control_1-Pad1)*%
X265695000Y-112465000D03*
D14*
%TO.P,D108,2,A*%
%TO.N,Net-(D106-Pad2)*%
X275855000Y-112465000D03*
%TD*%
D13*
%TO.P,D107,1,K*%
%TO.N,Net-(TAB_1-Pad2)*%
X191090000Y-235820000D03*
D14*
%TO.P,D107,2,A*%
%TO.N,Net-(D101-Pad2)*%
X201250000Y-235820000D03*
%TD*%
D13*
%TO.P,D106,1,K*%
%TO.N,Net-(TILDE_1-Pad2)*%
X250720000Y-257240000D03*
D14*
%TO.P,D106,2,A*%
%TO.N,Net-(D106-Pad2)*%
X260880000Y-257240000D03*
%TD*%
D13*
%TO.P,D105,1,K*%
%TO.N,Net-(ESC_1-Pad2)*%
X265695000Y-103965000D03*
D14*
%TO.P,D105,2,A*%
%TO.N,Tag7*%
X275855000Y-103965000D03*
%TD*%
D13*
%TO.P,D104,1,K*%
%TO.N,Net-(CAPS_1-Pad1)*%
X250720000Y-248740000D03*
D14*
%TO.P,D104,2,A*%
%TO.N,Net-(D101-Pad2)*%
X260880000Y-248740000D03*
%TD*%
D13*
%TO.P,D103,1,K*%
%TO.N,Net-(Left_Win_1-Pad1)*%
X293900000Y-221630000D03*
D14*
%TO.P,D103,2,A*%
%TO.N,Net-(D101-Pad2)*%
X304060000Y-221630000D03*
%TD*%
D13*
%TO.P,D102,1,K*%
%TO.N,Net-(Left_Shift_2-Pad1)*%
X40655000Y-267485000D03*
D14*
%TO.P,D102,2,A*%
%TO.N,Net-(Left_Shift_1-Pad2)*%
X50815000Y-267485000D03*
%TD*%
D13*
%TO.P,D101,1,K*%
%TO.N,Net-(Left_Shift_2-Pad1)*%
X310635000Y-63565000D03*
D14*
%TO.P,D101,2,A*%
%TO.N,Net-(D101-Pad2)*%
X320795000Y-63565000D03*
%TD*%
D13*
%TO.P,D100,1,K*%
%TO.N,Net-(Z_1-Pad1)*%
X273295000Y-96515000D03*
D14*
%TO.P,D100,2,A*%
%TO.N,Net-(D100-Pad2)*%
X283455000Y-96515000D03*
%TD*%
D13*
%TO.P,D99,1,K*%
%TO.N,Net-(A_1-Pad1)*%
X220240000Y-200480000D03*
D14*
%TO.P,D99,2,A*%
%TO.N,Net-(D96-Pad2)*%
X230400000Y-200480000D03*
%TD*%
D13*
%TO.P,D98,1,K*%
%TO.N,Net-(Q_1-Pad1)*%
X197865000Y-164565000D03*
D14*
%TO.P,D98,2,A*%
%TO.N,Net-(D95-Pad2)*%
X208025000Y-164565000D03*
%TD*%
D13*
%TO.P,D97,1,K*%
%TO.N,Net-(1_1-Pad1)*%
X213685000Y-144365000D03*
D14*
%TO.P,D97,2,A*%
%TO.N,Tag5*%
X223845000Y-144365000D03*
%TD*%
D13*
%TO.P,D96,1,K*%
%TO.N,Net-(S_1-Pad2)*%
X310635000Y-72065000D03*
D14*
%TO.P,D96,2,A*%
%TO.N,Net-(D96-Pad2)*%
X320795000Y-72065000D03*
%TD*%
D13*
%TO.P,D95,1,K*%
%TO.N,Net-(W_1-Pad2)*%
X231585000Y-132665000D03*
D14*
%TO.P,D95,2,A*%
%TO.N,Net-(D95-Pad2)*%
X241745000Y-132665000D03*
%TD*%
D13*
%TO.P,D94,1,K*%
%TO.N,Net-(2_1-Pad2)*%
X55695000Y-109495000D03*
D14*
%TO.P,D94,2,A*%
%TO.N,Tag5*%
X65855000Y-109495000D03*
%TD*%
%TO.P,D93,2,A*%
%TO.N,Net-(D17-Pad2)*%
X354860000Y-81100000D03*
D13*
%TO.P,D93,1,K*%
%TO.N,Net-(Left_Alt_1-Pad1)*%
X344700000Y-81100000D03*
%TD*%
%TO.P,D92,1,K*%
%TO.N,Net-(X_1-Pad1)*%
X-6035000Y-268765000D03*
D14*
%TO.P,D92,2,A*%
%TO.N,Net-(D100-Pad2)*%
X4125000Y-268765000D03*
%TD*%
D13*
%TO.P,D91,1,K*%
%TO.N,Net-(3_1-Pad2)*%
X197865000Y-168815000D03*
D14*
%TO.P,D91,2,A*%
%TO.N,Tag5*%
X208025000Y-168815000D03*
%TD*%
D13*
%TO.P,D90,1,K*%
%TO.N,Net-(F1_1-Pad1)*%
X163755000Y-184765000D03*
D14*
%TO.P,D90,2,A*%
%TO.N,Net-(D82-Pad2)*%
X173915000Y-184765000D03*
%TD*%
D13*
%TO.P,D89,1,K*%
%TO.N,Net-(C_1-Pad1)*%
X183955000Y-173065000D03*
D14*
%TO.P,D89,2,A*%
%TO.N,Net-(D100-Pad2)*%
X194115000Y-173065000D03*
%TD*%
D13*
%TO.P,D88,1,K*%
%TO.N,Net-(D_1-Pad1)*%
X177665000Y-201765000D03*
D14*
%TO.P,D88,2,A*%
%TO.N,Tag21*%
X187825000Y-201765000D03*
%TD*%
D13*
%TO.P,D87,1,K*%
%TO.N,Net-(E_1-Pad1)*%
X-33855000Y-268765000D03*
D14*
%TO.P,D87,2,A*%
%TO.N,Tag14*%
X-23695000Y-268765000D03*
%TD*%
D13*
%TO.P,D86,1,K*%
%TO.N,Net-(V_1-Pad2)*%
X161855000Y-218765000D03*
D14*
%TO.P,D86,2,A*%
%TO.N,Net-(D100-Pad2)*%
X172015000Y-218765000D03*
%TD*%
D13*
%TO.P,D85,1,K*%
%TO.N,Net-(F_1-Pad2)*%
X177665000Y-189015000D03*
D14*
%TO.P,D85,2,A*%
%TO.N,Tag21*%
X187825000Y-189015000D03*
%TD*%
D13*
%TO.P,D84,1,K*%
%TO.N,Net-(R_1-Pad2)*%
X-47765000Y-268765000D03*
D14*
%TO.P,D84,2,A*%
%TO.N,Tag14*%
X-37605000Y-268765000D03*
%TD*%
D13*
%TO.P,D83,1,K*%
%TO.N,Net-(4_1-Pad2)*%
X227595000Y-144365000D03*
D14*
%TO.P,D83,2,A*%
%TO.N,Tag5*%
X237755000Y-144365000D03*
%TD*%
D13*
%TO.P,D82,1,K*%
%TO.N,Net-(F2_1-Pad1)*%
X282815000Y-72065000D03*
D14*
%TO.P,D82,2,A*%
%TO.N,Net-(D82-Pad2)*%
X292975000Y-72065000D03*
%TD*%
D13*
%TO.P,D81,1,K*%
%TO.N,Net-(B_1-Pad1)*%
X177665000Y-184765000D03*
D14*
%TO.P,D81,2,A*%
%TO.N,Net-(D31-Pad2)*%
X187825000Y-184765000D03*
%TD*%
D13*
%TO.P,D80,1,K*%
%TO.N,Net-(T_1-Pad1)*%
X282815000Y-67815000D03*
D14*
%TO.P,D80,2,A*%
%TO.N,Net-(D74-Pad2)*%
X292975000Y-67815000D03*
%TD*%
D13*
%TO.P,D79,1,K*%
%TO.N,Net-(5_1-Pad1)*%
X55695000Y-113745000D03*
D14*
%TO.P,D79,2,A*%
%TO.N,Net-(D50-Pad2)*%
X65855000Y-113745000D03*
%TD*%
D13*
%TO.P,D78,1,K*%
%TO.N,Net-(F3_1-Pad1)*%
X310635000Y-67815000D03*
D14*
%TO.P,D78,2,A*%
%TO.N,Net-(D74-Pad2)*%
X320795000Y-67815000D03*
%TD*%
D13*
%TO.P,D77,1,K*%
%TO.N,Net-(G_1-Pad1)*%
X213685000Y-152865000D03*
D14*
%TO.P,D77,2,A*%
%TO.N,Net-(D17-Pad2)*%
X223845000Y-152865000D03*
%TD*%
D13*
%TO.P,D76,1,K*%
%TO.N,Net-(N_1-Pad2)*%
X227595000Y-148615000D03*
D14*
%TO.P,D76,2,A*%
%TO.N,Net-(D31-Pad2)*%
X237755000Y-148615000D03*
%TD*%
D13*
%TO.P,D75,1,K*%
%TO.N,Net-(H_1-Pad2)*%
X183955000Y-168815000D03*
D14*
%TO.P,D75,2,A*%
%TO.N,Net-(D17-Pad2)*%
X194115000Y-168815000D03*
%TD*%
D13*
%TO.P,D74,1,K*%
%TO.N,Net-(Y_1-Pad2)*%
X82385000Y-266845000D03*
D14*
%TO.P,D74,2,A*%
%TO.N,Net-(D74-Pad2)*%
X92545000Y-266845000D03*
%TD*%
D13*
%TO.P,D73,1,K*%
%TO.N,Net-(6_1-Pad2)*%
X227595000Y-152865000D03*
D14*
%TO.P,D73,2,A*%
%TO.N,Net-(D50-Pad2)*%
X237755000Y-152865000D03*
%TD*%
D13*
%TO.P,D72,1,K*%
%TO.N,Net-(F4_1-Pad1)*%
X250720000Y-240240000D03*
D14*
%TO.P,D72,2,A*%
%TO.N,Tag7*%
X260880000Y-240240000D03*
%TD*%
D13*
%TO.P,D71,1,K*%
%TO.N,Net-(Space_1-Pad2)*%
X110205000Y-267255000D03*
D14*
%TO.P,D71,2,A*%
%TO.N,Net-(D17-Pad2)*%
X120365000Y-267255000D03*
%TD*%
D13*
%TO.P,D70,1,K*%
%TO.N,Net-(M_1-Pad1)*%
X12835000Y-267485000D03*
D14*
%TO.P,D70,2,A*%
%TO.N,Net-(D100-Pad2)*%
X22995000Y-267485000D03*
%TD*%
D13*
%TO.P,D69,1,K*%
%TO.N,Net-(J_1-Pad1)*%
X231585000Y-128415000D03*
D14*
%TO.P,D69,2,A*%
%TO.N,Tag21*%
X241745000Y-128415000D03*
%TD*%
D13*
%TO.P,D68,1,K*%
%TO.N,Net-(U_1-Pad1)*%
X251785000Y-116715000D03*
D14*
%TO.P,D68,2,A*%
%TO.N,Tag22*%
X261945000Y-116715000D03*
%TD*%
D13*
%TO.P,D67,1,K*%
%TO.N,Net-(7_1-Pad1)*%
X245495000Y-132665000D03*
D14*
%TO.P,D67,2,A*%
%TO.N,Tag5*%
X255655000Y-132665000D03*
%TD*%
D13*
%TO.P,D66,1,K*%
%TO.N,Net-(F5_1-Pad2)*%
X251785000Y-103965000D03*
D14*
%TO.P,D66,2,A*%
%TO.N,Tag5*%
X261945000Y-103965000D03*
%TD*%
D13*
%TO.P,D65,1,K*%
%TO.N,Net-(K_1-Pad2)*%
X113835000Y-258755000D03*
D14*
%TO.P,D65,2,A*%
%TO.N,Tag21*%
X123995000Y-258755000D03*
%TD*%
D13*
%TO.P,D64,1,K*%
%TO.N,Net-(EYE_1-Pad2)*%
X205000000Y-241120000D03*
D14*
%TO.P,D64,2,A*%
%TO.N,Tag22*%
X215160000Y-241120000D03*
%TD*%
D13*
%TO.P,D63,1,K*%
%TO.N,Net-(8_1-Pad2)*%
X191575000Y-185815000D03*
D14*
%TO.P,D63,2,A*%
%TO.N,Tag5*%
X201735000Y-185815000D03*
%TD*%
D13*
%TO.P,D62,1,K*%
%TO.N,Net-(F6_1-Pad1)*%
X296725000Y-63565000D03*
D14*
%TO.P,D62,2,A*%
%TO.N,Tag7*%
X306885000Y-63565000D03*
%TD*%
D13*
%TO.P,D61,1,K*%
%TO.N,Net-(Less_Than_1-Pad1)*%
X231585000Y-124165000D03*
D14*
%TO.P,D61,2,A*%
%TO.N,Net-(D100-Pad2)*%
X241745000Y-124165000D03*
%TD*%
D13*
%TO.P,D60,1,K*%
%TO.N,Net-(F7_1-Pad2)*%
X113835000Y-263005000D03*
D14*
%TO.P,D60,2,A*%
%TO.N,Tag6*%
X123995000Y-263005000D03*
%TD*%
D13*
%TO.P,D59,1,K*%
%TO.N,Net-(Greater_Than_1-Pad2)*%
X163755000Y-197515000D03*
D14*
%TO.P,D59,2,A*%
%TO.N,Net-(APPS1-Pad2)*%
X173915000Y-197515000D03*
%TD*%
D13*
%TO.P,D58,1,K*%
%TO.N,Net-(Greater_Than_1-Pad1)*%
X183955000Y-164565000D03*
D14*
%TO.P,D58,2,A*%
%TO.N,Net-(D100-Pad2)*%
X194115000Y-164565000D03*
%TD*%
D13*
%TO.P,D57,1,K*%
%TO.N,Net-(Semicolon_1-Pad2)*%
X339620000Y-93800000D03*
D14*
%TO.P,D57,2,A*%
%TO.N,Tag21*%
X349780000Y-93800000D03*
%TD*%
D13*
%TO.P,D56,1,K*%
%TO.N,Net-(O_1-Pad1)*%
X147945000Y-204965000D03*
D14*
%TO.P,D56,2,A*%
%TO.N,Tag14*%
X158105000Y-204965000D03*
%TD*%
D13*
%TO.P,D55,1,K*%
%TO.N,Net-(9_1-Pad1)*%
X273295000Y-83765000D03*
D14*
%TO.P,D55,2,A*%
%TO.N,Tag5*%
X283455000Y-83765000D03*
%TD*%
D13*
%TO.P,D54,1,K*%
%TO.N,Net-(F8_1-Pad1)*%
X127745000Y-246005000D03*
D14*
%TO.P,D54,2,A*%
%TO.N,Net-(D50-Pad2)*%
X137905000Y-246005000D03*
%TD*%
D13*
%TO.P,D53,1,K*%
%TO.N,Net-(Semicolon_1-Pad2)*%
X113835000Y-254505000D03*
D14*
%TO.P,D53,2,A*%
%TO.N,Tag21*%
X123995000Y-254505000D03*
%TD*%
D13*
%TO.P,D52,1,K*%
%TO.N,Net-(P_1-Pad2)*%
X287205000Y-93315000D03*
D14*
%TO.P,D52,2,A*%
%TO.N,Tag14*%
X297365000Y-93315000D03*
%TD*%
D13*
%TO.P,D51,1,K*%
%TO.N,Net-(Zero_1-Pad2)*%
X287205000Y-84815000D03*
D14*
%TO.P,D51,2,A*%
%TO.N,Tag5*%
X297365000Y-84815000D03*
%TD*%
D13*
%TO.P,D50,1,K*%
%TO.N,Net-(F9_1-Pad2)*%
X163755000Y-189015000D03*
D14*
%TO.P,D50,2,A*%
%TO.N,Net-(D50-Pad2)*%
X173915000Y-189015000D03*
%TD*%
D13*
%TO.P,D49,1,K*%
%TO.N,Net-(Question_Mark_1-Pad1)*%
X113835000Y-250255000D03*
D14*
%TO.P,D49,2,A*%
%TO.N,Net-(D31-Pad2)*%
X123995000Y-250255000D03*
%TD*%
D13*
%TO.P,D48,1,K*%
%TO.N,Net-(Open_Bracket_1-Pad1)*%
X287205000Y-80565000D03*
D14*
%TO.P,D48,2,A*%
%TO.N,Net-(D44-Pad2)*%
X297365000Y-80565000D03*
%TD*%
D13*
%TO.P,D47,1,K*%
%TO.N,Net-(Minus1-Pad1)*%
X134035000Y-204965000D03*
D14*
%TO.P,D47,2,A*%
%TO.N,Tag20*%
X144195000Y-204965000D03*
%TD*%
D13*
%TO.P,D46,1,K*%
%TO.N,Net-(Apostrophe_1-Pad1)*%
X134035000Y-230465000D03*
D14*
%TO.P,D46,2,A*%
%TO.N,Net-(D17-Pad2)*%
X144195000Y-230465000D03*
%TD*%
D13*
%TO.P,D45,1,K*%
%TO.N,Net-(Right_Alt_1-Pad1)*%
X205000000Y-236870000D03*
D14*
%TO.P,D45,2,A*%
%TO.N,Net-(D31-Pad2)*%
X215160000Y-236870000D03*
%TD*%
D13*
%TO.P,D44,1,K*%
%TO.N,Net-(Close_Bracket1-Pad1)*%
X265695000Y-108215000D03*
D14*
%TO.P,D44,2,A*%
%TO.N,Net-(D44-Pad2)*%
X275855000Y-108215000D03*
%TD*%
D13*
%TO.P,D43,1,K*%
%TO.N,Net-(+=1-Pad1)*%
X293900000Y-230130000D03*
D14*
%TO.P,D43,2,A*%
%TO.N,Tag20*%
X304060000Y-230130000D03*
%TD*%
D13*
%TO.P,D42,1,K*%
%TO.N,Net-(Right_Shift1-Pad2)*%
X197865000Y-177315000D03*
D14*
%TO.P,D42,2,A*%
%TO.N,Tag21*%
X208025000Y-177315000D03*
%TD*%
D13*
%TO.P,D41,1,K*%
%TO.N,Net-(Enter1-Pad2)*%
X113835000Y-246005000D03*
D14*
%TO.P,D41,2,A*%
%TO.N,Net-(D100-Pad2)*%
X123995000Y-246005000D03*
%TD*%
D13*
%TO.P,D40,1,K*%
%TO.N,unconnected-(D40-Pad1)*%
X245495000Y-128415000D03*
D14*
%TO.P,D40,2,A*%
%TO.N,Tag21*%
X255655000Y-128415000D03*
%TD*%
D13*
%TO.P,D39,1,K*%
%TO.N,Net-(Backspace1-Pad1)*%
X-19945000Y-268765000D03*
D14*
%TO.P,D39,2,A*%
%TO.N,Tag13*%
X-9785000Y-268765000D03*
%TD*%
D13*
%TO.P,D38,1,K*%
%TO.N,Net-(Right_Control1-Pad2)*%
X54565000Y-267485000D03*
D14*
%TO.P,D38,2,A*%
%TO.N,Tag5*%
X64725000Y-267485000D03*
%TD*%
D13*
%TO.P,D37,1,K*%
%TO.N,Net-(Right_Windows1-Pad1)*%
X161855000Y-206015000D03*
D14*
%TO.P,D37,2,A*%
%TO.N,Tag21*%
X172015000Y-206015000D03*
%TD*%
D13*
%TO.P,D36,1,K*%
%TO.N,Net-(K_F10_1-Pad1)*%
X211775000Y-165615000D03*
D14*
%TO.P,D36,2,A*%
%TO.N,Tag5*%
X221935000Y-165615000D03*
%TD*%
D13*
%TO.P,D35,1,K*%
%TO.N,unconnected-(D35-Pad1)*%
X282815000Y-63565000D03*
D14*
%TO.P,D35,2,A*%
%TO.N,Net-(D31-Pad2)*%
X292975000Y-63565000D03*
%TD*%
D13*
%TO.P,D34,1,K*%
%TO.N,Net-(K_F11_1-Pad1)*%
X183955000Y-177315000D03*
D14*
%TO.P,D34,2,A*%
%TO.N,Tag7*%
X194115000Y-177315000D03*
%TD*%
D13*
%TO.P,D33,1,K*%
%TO.N,Net-(D33-Pad1)*%
X296725000Y-67815000D03*
D14*
%TO.P,D33,2,A*%
%TO.N,Tag19*%
X306885000Y-67815000D03*
%TD*%
D13*
%TO.P,D32,1,K*%
%TO.N,Net-(K_F12_1-Pad1)*%
X287205000Y-89065000D03*
D14*
%TO.P,D32,2,A*%
%TO.N,Net-(D31-Pad2)*%
X297365000Y-89065000D03*
%TD*%
D13*
%TO.P,D31,1,K*%
%TO.N,Net-(D31-Pad1)*%
X191090000Y-240070000D03*
D14*
%TO.P,D31,2,A*%
%TO.N,Net-(D31-Pad2)*%
X201250000Y-240070000D03*
%TD*%
D13*
%TO.P,D30,1,K*%
%TO.N,Net-(Print_Screen1-Pad2)*%
X134035000Y-238965000D03*
D14*
%TO.P,D30,2,A*%
%TO.N,Tag5*%
X144195000Y-238965000D03*
%TD*%
D13*
%TO.P,D29,1,K*%
%TO.N,Net-(DELETE1-Pad1)*%
X163755000Y-201765000D03*
D14*
%TO.P,D29,2,A*%
%TO.N,Tag20*%
X173915000Y-201765000D03*
%TD*%
D13*
%TO.P,D28,1,K*%
%TO.N,Net-(INSERT1-Pad1)*%
X96295000Y-266205000D03*
D14*
%TO.P,D28,2,A*%
%TO.N,Tag20*%
X106455000Y-266205000D03*
%TD*%
D13*
%TO.P,D27,1,K*%
%TO.N,Net-(D27-Pad1)*%
X191575000Y-181565000D03*
D14*
%TO.P,D27,2,A*%
%TO.N,Net-(D31-Pad2)*%
X201735000Y-181565000D03*
%TD*%
D13*
%TO.P,D26,1,K*%
%TO.N,Net-(Scroll_Lock1-Pad2)*%
X163755000Y-193265000D03*
D14*
%TO.P,D26,2,A*%
%TO.N,Tag6*%
X173915000Y-193265000D03*
%TD*%
D13*
%TO.P,D25,1,K*%
%TO.N,Net-(Up_Arrow1-Pad1)*%
X177665000Y-193265000D03*
D14*
%TO.P,D25,2,A*%
%TO.N,Net-(D17-Pad2)*%
X187825000Y-193265000D03*
%TD*%
D13*
%TO.P,D24,1,K*%
%TO.N,Net-(END1-Pad1)*%
X197865000Y-173065000D03*
D14*
%TO.P,D24,2,A*%
%TO.N,Tag5*%
X208025000Y-173065000D03*
%TD*%
D13*
%TO.P,D23,1,K*%
%TO.N,Net-(HOME1-Pad1)*%
X296725000Y-76315000D03*
D14*
%TO.P,D23,2,A*%
%TO.N,Tag20*%
X306885000Y-76315000D03*
%TD*%
D13*
%TO.P,D22,1,K*%
%TO.N,Net-(Right_Arrow1-Pad2)*%
X251785000Y-112465000D03*
D14*
%TO.P,D22,2,A*%
%TO.N,Tag2*%
X261945000Y-112465000D03*
%TD*%
D13*
%TO.P,D21,1,K*%
%TO.N,Net-(Pause1-Pad2)*%
X82385000Y-271095000D03*
D14*
%TO.P,D21,2,A*%
%TO.N,Tag6*%
X92545000Y-271095000D03*
%TD*%
D13*
%TO.P,D20,1,K*%
%TO.N,Net-(PAGE_DOWN1-Pad1)*%
X213685000Y-161365000D03*
D14*
%TO.P,D20,2,A*%
%TO.N,Tag5*%
X223845000Y-161365000D03*
%TD*%
D13*
%TO.P,D19,1,K*%
%TO.N,Net-(PAGE_UP1-Pad1)*%
X26745000Y-267485000D03*
D14*
%TO.P,D19,2,A*%
%TO.N,Tag20*%
X36905000Y-267485000D03*
%TD*%
D13*
%TO.P,D18,1,K*%
%TO.N,Tag15*%
X250720000Y-244490000D03*
D14*
%TO.P,D18,2,A*%
%TO.N,Net-(D18-Pad2)*%
X260880000Y-244490000D03*
%TD*%
%TO.P,D17,2,A*%
%TO.N,Net-(D17-Pad2)*%
X354860000Y-116660000D03*
D13*
%TO.P,D17,1,K*%
%TO.N,Net-(D17-Pad1)*%
X344700000Y-116660000D03*
%TD*%
%TO.P,D16,1,K*%
%TO.N,Net-(D16-Pad1)*%
X250720000Y-252990000D03*
D14*
%TO.P,D16,2,A*%
%TO.N,Tag21*%
X260880000Y-252990000D03*
%TD*%
D13*
%TO.P,D15,1,K*%
%TO.N,Net-(D15-Pad1)*%
X177665000Y-197515000D03*
D14*
%TO.P,D15,2,A*%
%TO.N,Tag13*%
X187825000Y-197515000D03*
%TD*%
D13*
%TO.P,D14,1,K*%
%TO.N,Tag6*%
X68475000Y-267485000D03*
D14*
%TO.P,D14,2,A*%
%TO.N,Tag14*%
X78635000Y-267485000D03*
%TD*%
D13*
%TO.P,D13,1,K*%
%TO.N,Net-(D13-Pad1)*%
X96295000Y-270455000D03*
D14*
%TO.P,D13,2,A*%
%TO.N,Tag19*%
X106455000Y-270455000D03*
%TD*%
D13*
%TO.P,D12,1,K*%
%TO.N,Net-(D12-Pad1)*%
X273295000Y-92265000D03*
D14*
%TO.P,D12,2,A*%
%TO.N,Tag21*%
X283455000Y-92265000D03*
%TD*%
D13*
%TO.P,D11,1,K*%
%TO.N,Net-(D11-Pad1)*%
X282815000Y-76315000D03*
D14*
%TO.P,D11,2,A*%
%TO.N,Tag13*%
X292975000Y-76315000D03*
%TD*%
D13*
%TO.P,D10,1,K*%
%TO.N,Net-(KP_8_1-Pad1)*%
X55695000Y-117995000D03*
D14*
%TO.P,D10,2,A*%
%TO.N,Tag14*%
X65855000Y-117995000D03*
%TD*%
D13*
%TO.P,D9,1,K*%
%TO.N,Net-(D9-Pad1)*%
X231585000Y-136915000D03*
D14*
%TO.P,D9,2,A*%
%TO.N,Tag19*%
X241745000Y-136915000D03*
%TD*%
D13*
%TO.P,D8,1,K*%
%TO.N,Net-(D8-Pad1)*%
X55695000Y-105245000D03*
D14*
%TO.P,D8,2,A*%
%TO.N,Net-(D17-Pad2)*%
X65855000Y-105245000D03*
%TD*%
D13*
%TO.P,D7,1,K*%
%TO.N,Net-(D7-Pad1)*%
X273295000Y-88015000D03*
D14*
%TO.P,D7,2,A*%
%TO.N,Tag21*%
X283455000Y-88015000D03*
%TD*%
D13*
%TO.P,D6,1,K*%
%TO.N,Net-(D6-Pad1)*%
X245495000Y-124165000D03*
D14*
%TO.P,D6,2,A*%
%TO.N,Tag13*%
X255655000Y-124165000D03*
%TD*%
D13*
%TO.P,D5,1,K*%
%TO.N,Net-(D5-Pad1)*%
X213685000Y-148615000D03*
D14*
%TO.P,D5,2,A*%
%TO.N,Tag14*%
X223845000Y-148615000D03*
%TD*%
D13*
%TO.P,D4,1,K*%
%TO.N,Net-(KP_STAR1-Pad1)*%
X293900000Y-225880000D03*
D14*
%TO.P,D4,2,A*%
%TO.N,Tag19*%
X304060000Y-225880000D03*
%TD*%
D13*
%TO.P,D3,1,K*%
%TO.N,Net-(KP_ENTER1-Pad2)*%
X365020000Y-98880000D03*
D14*
%TO.P,D3,2,A*%
%TO.N,Tag21*%
X365020000Y-88720000D03*
%TD*%
D13*
%TO.P,D2,1,K*%
%TO.N,Net-(D2-Pad1)*%
X213685000Y-157115000D03*
D14*
%TO.P,D2,2,A*%
%TO.N,Tag14*%
X223845000Y-157115000D03*
%TD*%
D13*
%TO.P,D1,1,K*%
%TO.N,Net-(KP_MINUS1-Pad1)*%
X134035000Y-234715000D03*
D14*
%TO.P,D1,2,A*%
%TO.N,Tag2*%
X144195000Y-234715000D03*
%TD*%
D10*
%TO.P,C_1,1,A*%
%TO.N,Net-(C_1-Pad1)*%
X113920000Y-188300000D03*
%TO.P,C_1,2,B*%
%TO.N,Tag26*%
X107570000Y-190840000D03*
%TD*%
%TO.P,Close_Bracket1,1,A*%
%TO.N,Net-(Close_Bracket1-Pad1)*%
X134120000Y-167460000D03*
%TO.P,Close_Bracket1,2,B*%
%TO.N,Tag7*%
X127770000Y-170000000D03*
%TD*%
%TO.P,CAPS_1,1,A*%
%TO.N,Net-(CAPS_1-Pad1)*%
X127222500Y-66460000D03*
%TO.P,CAPS_1,2,B*%
%TO.N,Tag12*%
X120872500Y-69000000D03*
%TD*%
%TO.P,B_1,1,A*%
%TO.N,Net-(B_1-Pad1)*%
X263860000Y-86660000D03*
%TO.P,B_1,2,B*%
%TO.N,Tag10*%
X257510000Y-89200000D03*
%TD*%
%TO.P,Backspace1,1,A*%
%TO.N,Net-(Backspace1-Pad1)*%
X-27475000Y-128980000D03*
%TO.P,Backspace1,2,B*%
%TO.N,Tag6*%
X-33825000Y-131520000D03*
%TD*%
%TO.P,Backslash1,1,A*%
%TO.N,Tag6*%
X7012500Y-128980000D03*
%TO.P,Backslash1,2,B*%
%TO.N,unconnected-(Backslash1-Pad2)*%
X662500Y-131520000D03*
%TD*%
%TO.P,A_1,1,A*%
%TO.N,Net-(A_1-Pad1)*%
X122460000Y-86660000D03*
%TO.P,A_1,2,B*%
%TO.N,Tag11*%
X116110000Y-89200000D03*
%TD*%
%TO.P,APPS1,1,A*%
%TO.N,unconnected-(APPS1-Pad1)*%
X162860000Y-86660000D03*
%TO.P,APPS1,2,B*%
%TO.N,Net-(APPS1-Pad2)*%
X156510000Y-89200000D03*
%TD*%
%TO.P,Apostrophe_1,1,A*%
%TO.N,Net-(Apostrophe_1-Pad1)*%
X83050000Y-147900000D03*
%TO.P,Apostrophe_1,2,B*%
%TO.N,Tag6*%
X76700000Y-150440000D03*
%TD*%
%TO.P,9_1,1,A*%
%TO.N,Net-(9_1-Pad1)*%
X53320000Y-169380000D03*
%TO.P,9_1,2,B*%
%TO.N,Tag22*%
X46970000Y-171920000D03*
%TD*%
%TO.P,8_1,1,A*%
%TO.N,Tag7*%
X2250000Y-149180000D03*
%TO.P,8_1,2,B*%
%TO.N,Net-(8_1-Pad2)*%
X-4100000Y-151720000D03*
%TD*%
%TO.P,7_1,1,A*%
%TO.N,Net-(7_1-Pad1)*%
X12920000Y-189580000D03*
%TO.P,7_1,2,B*%
%TO.N,Tag25*%
X6570000Y-192120000D03*
%TD*%
%TO.P,6_1,1,A*%
%TO.N,Tag25*%
X161550000Y-106860000D03*
%TO.P,6_1,2,B*%
%TO.N,Net-(6_1-Pad2)*%
X155200000Y-109400000D03*
%TD*%
%TO.P,5_1,1,A*%
%TO.N,Net-(5_1-Pad1)*%
X-16800000Y-211060000D03*
%TO.P,5_1,2,B*%
%TO.N,Tag10*%
X-23150000Y-213600000D03*
%TD*%
%TO.P,4_1,1,A*%
%TO.N,Tag10*%
X84200000Y-229340000D03*
%TO.P,4_1,2,B*%
%TO.N,Net-(4_1-Pad2)*%
X77850000Y-231880000D03*
%TD*%
%TO.P,3_1,1,A*%
%TO.N,Tag26*%
X52170000Y-128340000D03*
%TO.P,3_1,2,B*%
%TO.N,Net-(3_1-Pad2)*%
X45820000Y-130880000D03*
%TD*%
%TO.P,2_1,1,A*%
%TO.N,Tag12*%
X141350000Y-106860000D03*
%TO.P,2_1,2,B*%
%TO.N,Net-(2_1-Pad2)*%
X135000000Y-109400000D03*
%TD*%
%TO.P,1_1,1,A*%
%TO.N,Net-(1_1-Pad1)*%
X64000000Y-229980000D03*
%TO.P,1_1,2,B*%
%TO.N,Tag11*%
X57650000Y-232520000D03*
%TD*%
%TO.P,+=1,1,A*%
%TO.N,Net-(+=1-Pad1)*%
X33120000Y-189580000D03*
%TO.P,+=1,2,B*%
%TO.N,Tag7*%
X26770000Y-192120000D03*
%TD*%
M02*
